<?xml version="1.0" encoding="utf-8"?>
<!-- Generator: Adobe Illustrator 24.2.3, SVG Export Plug-In . SVG Version: 6.00 Build 0)  -->
<svg version="1.1" id="Layer_1" xmlns="http://www.w3.org/2000/svg" xmlns:xlink="http://www.w3.org/1999/xlink" x="0px" y="0px"
	 viewBox="0 0 1400 487" style="enable-background:new 0 0 1400 487;" xml:space="preserve">
<style type="text/css">
	.st0{fill:#073047;}
</style>
<g>
	<g id="XMLID_199_">
		<path id="XMLID_230_" class="st0" d="M168.7,466.8v-44.9h-49.9v44.9H99.5v-99.9h19.3v37.8h49.9v-37.8H188v99.9H168.7z"/>
		<path id="XMLID_227_" class="st0" d="M276.4,397.6v69.2h-17.8v-5.6c-5.5,4.7-11.9,7-19.3,7c-10.7,0-19.4-3.9-26.1-11.7
			c-5.9-6.8-8.8-14.9-8.8-24.3c0-10.2,3.3-18.7,9.9-25.7c6.6-6.9,14.6-10.4,24-10.4c7.8,0,14.6,2.3,20.3,7v-5.6H276.4z M257.9,442.5
			v-20.7c-4.3-5.7-10-8.6-17.1-8.6c-5.2,0-9.5,1.9-12.8,5.6c-3.3,3.8-5,8.2-5,13.3c0,5.4,1.7,9.9,5.2,13.5c3.5,3.6,7.8,5.4,13.1,5.4
			C248.3,451.1,253.9,448.2,257.9,442.5z"/>
		<path id="XMLID_225_" class="st0" d="M307.8,397.6l19,42.2l19-42.2H365l-31.8,69.2h-12.8l-31.8-69.2H307.8z"/>
		<path id="XMLID_222_" class="st0" d="M423.4,445.2l10.6,10.6c-3.3,3.9-7.5,6.9-12.6,9.1c-5.1,2.2-10.3,3.3-15.8,3.3
			c-10.5,0-19.1-3.3-26-9.9c-6.9-6.6-10.3-15.3-10.3-26c0-10,3.1-18.5,9.3-25.5c6.2-7,14.3-10.6,24.3-10.6c9.4,0,17.2,3.4,23.4,10.3
			c6.2,6.9,9.3,15.2,9.3,25c0,2-0.1,3.8-0.4,5.3h-47.9c0.5,4.8,2.5,8.8,6,11.8c3.5,3,7.8,4.6,12.7,4.6
			C412.6,453.2,418.4,450.6,423.4,445.2z M388.1,423.3h28.5c-0.3-3.2-1.7-6.1-4.4-8.5c-2.6-2.4-5.7-3.6-9.3-3.6
			c-3.7,0-7,1.2-9.8,3.6C390.3,417.2,388.6,420,388.1,423.3z"/>
		<path id="XMLID_219_" class="st0" d="M496.4,466.8h-20.1l42.8-99.9h13.6l42.8,99.9h-20.1l-9.4-22.1h-40.1L496.4,466.8z M525.8,398
			l-12.7,29.5h25.4L525.8,398z"/>
		<path id="XMLID_217_" class="st0" d="M667.9,382.6c-9.4,0-17.3,3.3-23.7,10c-6.4,6.7-9.6,14.7-9.6,24.3c0,9.7,3.3,17.8,9.8,24.4
			c6.6,6.6,14.6,9.8,24.3,9.8c8.4,0,15.8-2.6,22.3-7.7v-21.5h-25.7v-17.1h44.9v44.4c-4.6,5.8-10.5,10.4-17.8,13.9
			s-15.3,5.2-24.2,5.2c-15.4,0-28.1-4.9-38-14.8c-9.9-9.8-14.9-22-14.9-36.6s4.9-26.8,14.8-36.6c9.9-9.8,22.5-14.8,37.8-14.8
			c14.6,0,26.7,4.8,36.5,14.3l-12.4,13.1C685.3,386,677.3,382.6,667.9,382.6z"/>
		<path id="XMLID_214_" class="st0" d="M735.1,457.8c-7-6.9-10.6-15.5-10.6-25.5c0-10.1,3.5-18.6,10.6-25.6c7-7,15.8-10.5,26.3-10.5
			c10.5,0,19.2,3.5,26.3,10.5c7,7,10.6,15.5,10.6,25.6c0,10.1-3.5,18.6-10.6,25.5c-7,6.9-15.8,10.4-26.3,10.4
			C750.9,468.2,742.2,464.7,735.1,457.8z M748.3,418.8c-3.4,3.7-5.1,8.2-5.1,13.5c0,5.3,1.7,9.8,5.1,13.4c3.4,3.6,7.8,5.4,13.1,5.4
			s9.7-1.8,13.1-5.4c3.4-3.6,5.1-8.1,5.1-13.4c0-5.3-1.7-9.8-5.1-13.5c-3.4-3.7-7.8-5.5-13.1-5.5S751.7,415.1,748.3,418.8z"/>
		<path id="XMLID_211_" class="st0" d="M820.2,457.8c-7-6.9-10.6-15.5-10.6-25.5c0-10.1,3.5-18.6,10.6-25.6c7-7,15.8-10.5,26.3-10.5
			c10.5,0,19.2,3.5,26.3,10.5c7,7,10.6,15.5,10.6,25.6c0,10.1-3.5,18.6-10.6,25.5c-7,6.9-15.8,10.4-26.3,10.4
			C836,468.2,827.2,464.7,820.2,457.8z M833.3,418.8c-3.4,3.7-5.1,8.2-5.1,13.5c0,5.3,1.7,9.8,5.1,13.4c3.4,3.6,7.8,5.4,13.1,5.4
			s9.7-1.8,13.1-5.4c3.4-3.6,5.1-8.1,5.1-13.4c0-5.3-1.7-9.8-5.1-13.5c-3.4-3.7-7.8-5.5-13.1-5.5S836.7,415.1,833.3,418.8z"/>
		<path id="XMLID_208_" class="st0" d="M966.7,466.8h-17.8v-5.6c-5.5,4.7-11.9,7-19.3,7c-10.7,0-19.4-3.9-26.1-11.7
			c-5.9-6.8-8.8-14.9-8.8-24.3c0-10.2,3.3-18.7,9.9-25.7c6.6-6.9,14.6-10.4,24-10.4c7.6,0,14.1,2.1,19.5,6.4v-37.1h18.6V466.8z
			 M948.2,442.5v-20.7c-4.3-5.7-10-8.6-17.1-8.6c-5.2,0-9.5,1.9-12.8,5.6c-3.3,3.8-5,8.2-5,13.3c0,5.4,1.7,9.9,5.2,13.5
			c3.5,3.6,7.8,5.4,13.1,5.4C938.6,451.1,944.2,448.2,948.2,442.5z"/>
		<path id="XMLID_205_" class="st0" d="M1034.8,453.4c-9.8-9.9-14.6-22.1-14.6-36.5s4.9-26.6,14.6-36.5c9.8-9.9,22.2-14.8,37.5-14.8
			s27.7,4.9,37.5,14.8c9.8,9.9,14.6,22.1,14.6,36.5s-4.9,26.6-14.6,36.5c-9.8,9.9-22.2,14.8-37.5,14.8S1044.6,463.3,1034.8,453.4z
			 M1048.9,392.6c-6.3,6.7-9.4,14.7-9.4,24.3c0,9.5,3.1,17.6,9.4,24.3c6.3,6.7,14.1,10,23.4,10c9.3,0,17.1-3.3,23.4-10
			c6.3-6.7,9.4-14.7,9.4-24.3c0-9.5-3.1-17.6-9.4-24.3c-6.3-6.7-14.1-10-23.4-10C1063,382.6,1055.2,385.9,1048.9,392.6z"/>
		<path id="XMLID_203_" class="st0" d="M1157.9,466.8h-18.5v-69.2h17.8v5.6c5.7-4.7,12.2-7,19.5-7c9.8,0,17.8,3.7,24,11.1
			c4.8,5.6,7.1,13.7,7.1,24.3v35.2h-18.5v-36.7c0-5.9-1.4-10.2-4.1-13c-2.6-2.6-6-3.9-10.4-3.9c-3.5,0-6.8,0.9-9.9,2.6
			c-3.1,1.8-5.4,3.7-6.9,5.9V466.8z"/>
		<path id="XMLID_200_" class="st0" d="M1276.2,445.2l10.6,10.6c-3.3,3.9-7.5,6.9-12.6,9.1c-5.1,2.2-10.3,3.3-15.8,3.3
			c-10.5,0-19.1-3.3-26-9.9c-6.9-6.6-10.3-15.3-10.3-26c0-10,3.1-18.5,9.3-25.5c6.2-7,14.3-10.6,24.3-10.6c9.4,0,17.2,3.4,23.4,10.3
			c6.2,6.9,9.3,15.2,9.3,25c0,2-0.1,3.8-0.4,5.3h-47.9c0.5,4.8,2.5,8.8,6,11.8c3.5,3,7.8,4.6,12.7,4.6
			C1265.4,453.2,1271.2,450.6,1276.2,445.2z M1240.9,423.3h28.5c-0.3-3.2-1.7-6.1-4.4-8.5c-2.6-2.4-5.7-3.6-9.3-3.6
			c-3.7,0-7,1.2-9.8,3.6C1243.1,417.2,1241.4,420,1240.9,423.3z"/>
	</g>
	<path id="XMLID_197_" class="st0" d="M255.4,263.3V160.6H141.3v102.7h-44V35.1h44v86.4h114.1V35.1h44v228.2H255.4z"/>
	<path id="XMLID_194_" class="st0" d="M456.5,263.3h-46l97.8-228.2h31l97.8,228.2h-46l-21.5-50.5h-91.6L456.5,263.3z M523.7,106.2
		l-29,67.5h58L523.7,106.2z"/>
	<path id="XMLID_192_" class="st0" d="M848.3,67.7c-21.5,0-39.6,7.6-54.1,22.8c-14.6,15.2-21.8,33.7-21.8,55.4
		c0,22.2,7.5,40.7,22.5,55.7c15,15,33.5,22.5,55.4,22.5c19.1,0,36.1-5.9,50.8-17.6v-49.2h-58.7v-39.1h102.7v101.4
		c-10.4,13.3-24,23.9-40.6,31.8c-16.6,7.9-35,11.9-55.2,11.9c-35.2,0-64.2-11.2-86.9-33.7c-22.7-22.5-34.1-50.4-34.1-83.6
		s11.3-61.1,33.9-83.6c22.6-22.5,51.4-33.7,86.4-33.7c33.2,0,61.1,10.9,83.4,32.6l-28.4,30C888.1,75.5,869.6,67.7,848.3,67.7z"/>
	<path id="XMLID_26_" class="st0" d="M1099.6,229.4c-22.3-22.6-33.4-50.4-33.4-83.4c0-33,11.1-60.8,33.4-83.4
		c22.3-22.6,50.8-33.9,85.6-33.9c34.8,0,63.3,11.3,85.6,33.9c22.3,22.6,33.4,50.4,33.4,83.4c0,33-11.1,60.8-33.4,83.4
		c-22.3,22.6-50.8,33.9-85.6,33.9C1150.4,263.3,1121.9,252,1099.6,229.4z M1131.7,90.5c-14.3,15.2-21.5,33.7-21.5,55.4
		c0,21.7,7.2,40.2,21.5,55.4c14.3,15.2,32.2,22.8,53.5,22.8c21.3,0,39.1-7.6,53.5-22.8c14.3-15.2,21.5-33.7,21.5-55.4
		c0-21.7-7.2-40.2-21.5-55.4c-14.3-15.2-32.2-22.8-53.5-22.8C1163.9,67.7,1146.1,75.3,1131.7,90.5z"/>
</g>
</svg>
